<svg width="250" height="55" viewBox="0 0 250 55" fill="none" xmlns="http://www.w3.org/2000/svg">
<path d="M97.8035 7.49414V17.1551H92V25.3217H97.8035V37.311C97.8035 39.7089 98.8461 41.9677 100.792 43.6358L102.043 44.7479C104.545 46.972 107.881 48.1883 111.426 48.1883H116.778V39.9869H110.21C108.403 39.9869 106.908 38.7011 106.908 37.172V25.3217H116.778V17.1551H106.908V7.49414H97.8035Z" fill="#242E42"/>
<path fill-rule="evenodd" clip-rule="evenodd" d="M173.18 15.3828C163.449 15.3828 155.526 22.7153 155.526 31.7508C155.526 40.7862 163.415 48.1188 173.18 48.1188C180.373 48.1188 184.822 46.1727 187.463 43.0798L181.138 37.2763C179.817 39.1876 177.35 40.4387 173.215 40.4387C169.461 40.4387 166.264 38.3883 164.77 35.4692H190.59C190.764 34.2876 190.834 33.0366 190.834 31.7508C190.799 22.7501 182.91 15.3828 173.18 15.3828ZM164.77 27.9628C166.299 25.0784 169.461 23.0629 173.18 23.0629C176.863 23.0629 180.061 25.0437 181.59 27.9628H164.77Z" fill="#242E42"/>
<path d="M239.521 37.172C239.521 38.7011 240.98 39.9869 242.822 39.9869H249.39V48.1883H244.038C240.494 48.1883 237.157 46.972 234.655 44.7479L233.404 43.6358C231.493 41.9677 230.45 39.7089 230.45 37.311V7.49414H239.521V37.172Z" fill="#242E42"/>
<path d="M158.167 44.9216C154.483 39.6394 149.479 34.9131 143.537 31.16C150.105 24.6614 154.483 16.8076 156.256 8.36293L156.395 7.52889H147.255C144.996 17.4331 138.22 26.3295 128.663 32.0983V7.49414H119.593V48.1535H128.663V41.4812C131.408 40.1954 134.049 38.6316 136.76 36.755C142.077 39.8131 146.456 43.6358 149.757 48.1535H160.287C160.254 48.1535 159.968 47.6997 159.587 47.096C159.158 46.4166 158.609 45.5472 158.167 44.9216Z" fill="#242E42"/>
<path fill-rule="evenodd" clip-rule="evenodd" d="M192.397 31.7508C192.397 22.7153 200.321 15.3828 210.051 15.3828C219.782 15.3828 227.705 22.7501 227.705 31.7508C227.705 33.0366 227.636 34.2876 227.462 35.4692H201.641C203.136 38.3883 206.333 40.4387 210.086 40.4387C214.221 40.4387 216.689 39.1876 218.009 37.2763L224.334 43.0798C221.693 46.1727 217.245 48.1188 210.051 48.1188C200.286 48.1188 192.397 40.7862 192.397 31.7508ZM210.051 23.0629C206.333 23.0629 203.17 25.0784 201.641 27.9628H218.461C216.932 25.0437 213.735 23.0629 210.051 23.0629Z" fill="#242E42"/>
<path d="M15.5769 0.744141L0 27.7441H27.3462L42.9577 0.744141H15.5769Z" fill="url(#paint0_linear_2785_118475)"/>
<path d="M51.4385 0.744141L35.8269 27.7441H63.1731L78.7846 0.744141H51.4385Z" fill="url(#paint1_linear_2785_118475)"/>
<path d="M78.7154 54.6403L49.5 4.06722L35.8269 27.7441L35.8961 27.8826L51.4385 54.7442H78.7846L78.7154 54.6403Z" fill="url(#paint2_linear_2785_118475)"/>
<path d="M19.2462 54.7441V0.744141H42.9577L27.3462 27.7441H35.8269L42.9577 15.4115V54.7441H19.2462Z" fill="url(#paint3_linear_2785_118475)"/>
<defs>
<linearGradient id="paint0_linear_2785_118475" x1="1.78463" y1="14.25" x2="26.7171" y2="14.25" gradientUnits="userSpaceOnUse">
<stop stop-color="#00EFFE"/>
<stop offset="0.9992" stop-color="#00CAFA"/>
</linearGradient>
<linearGradient id="paint1_linear_2785_118475" x1="65.5" y1="-1.5" x2="55" y2="22" gradientUnits="userSpaceOnUse">
<stop stop-color="#0B78E5"/>
<stop offset="1" stop-color="#2844CC"/>
</linearGradient>
<linearGradient id="paint2_linear_2785_118475" x1="35.8346" y1="29.4109" x2="78.7751" y2="29.4109" gradientUnits="userSpaceOnUse">
<stop stop-color="#0B78E5"/>
<stop offset="1" stop-color="#2844CC"/>
</linearGradient>
<linearGradient id="paint3_linear_2785_118475" x1="31.0968" y1="-0.870217" x2="31.0968" y2="54.0191" gradientUnits="userSpaceOnUse">
<stop stop-color="#00EFFE"/>
<stop offset="0.9992" stop-color="#00CAFA"/>
</linearGradient>
</defs>
</svg>
