<svg width="20" height="20" viewBox="0 0 20 20" fill="none" xmlns="http://www.w3.org/2000/svg">
<path fill-rule="evenodd" clip-rule="evenodd" d="M9.99984 18.3334C14.6022 18.3334 18.3332 14.6025 18.3332 10.0001C18.3332 5.39771 14.6022 1.66675 9.99984 1.66675C5.39746 1.66675 1.6665 5.39771 1.6665 10.0001C1.6665 14.6025 5.39746 18.3334 9.99984 18.3334ZM11.2498 6.25008C11.2498 6.71032 10.8767 7.08341 10.4165 7.08341C9.95627 7.08341 9.58317 6.71032 9.58317 6.25008C9.58317 5.78984 9.95627 5.41675 10.4165 5.41675C10.8767 5.41675 11.2498 5.78984 11.2498 6.25008ZM11.7449 14.5079C11.2916 14.692 10.8792 14.8232 10.5093 14.9068C10.1395 14.9886 9.78842 15.0312 9.45614 15.0312C9.12894 15.0312 8.88179 14.9426 8.713 14.7653C8.54433 14.5881 8.46077 14.3307 8.46077 13.9898C8.46077 13.9029 8.46936 13.7956 8.48644 13.666C8.50339 13.5382 8.53585 13.3439 8.58353 13.0866L9.30276 9.4821L8.20347 9.31167V8.84127L10.5042 8.33342H11.0922L10.235 12.8599C10.2094 12.9996 10.1907 13.1122 10.1787 13.2008C10.1668 13.2877 10.1616 13.3593 10.1616 13.4172C10.1616 13.6558 10.2179 13.8399 10.332 13.9626C10.4446 14.087 10.6081 14.15 10.8229 14.15C10.9184 14.15 11.0445 14.1347 11.203 14.1039C11.3597 14.0734 11.5404 14.0256 11.7449 13.9592L11.7449 14.5079Z" fill="#329DCE"/>
</svg>
