<svg width="20" height="20" viewBox="0 0 20 20" fill="none" xmlns="http://www.w3.org/2000/svg">
<path fill-rule="evenodd" clip-rule="evenodd" d="M9.99984 18.3334C14.6022 18.3334 18.3332 14.6025 18.3332 10.0001C18.3332 5.39771 14.6022 1.66675 9.99984 1.66675C5.39746 1.66675 1.6665 5.39771 1.6665 10.0001C1.6665 14.6025 5.39746 18.3334 9.99984 18.3334ZM8.76906 7.65329L7.08317 7.32021C7.37909 5.91485 8.54602 5.00008 10.0337 5.00008C11.4271 5.00008 12.6802 5.88666 12.8841 7.40259C13.0281 8.47425 12.6922 9.14131 11.8795 9.94173C11.8555 9.96532 11.7966 10.0227 11.7408 10.0771L11.7403 10.0776C11.691 10.1255 11.6443 10.1711 11.6261 10.189C11.0377 10.7678 10.8337 11.1422 10.8337 11.8735H9.11315C9.11315 10.6353 9.52377 9.8818 10.4 9.01972C10.4221 8.99794 10.4756 8.94579 10.5285 8.89428C10.581 8.84317 10.633 8.79251 10.6528 8.77306C11.1313 8.30177 11.2406 8.08464 11.1779 7.61783C11.0951 7.00218 10.621 6.66675 10.0337 6.66675C9.36057 6.66675 8.90091 7.02708 8.76906 7.65329ZM10.8332 13.9584C10.8332 14.4187 10.4601 14.7917 9.99984 14.7917C9.5396 14.7917 9.1665 14.4187 9.1665 13.9584C9.1665 13.4982 9.5396 13.1251 9.99984 13.1251C10.4601 13.1251 10.8332 13.4982 10.8332 13.9584Z" fill="#55BC8A"/>
</svg>
