<svg width="149" height="28" viewBox="0 0 149 28" fill="none"
     xmlns="http://www.w3.org/2000/svg">
  <g clip-path="url(#clip0_4409_121438)">
    <path
      d="M10.8073 0H10.5404H0.433623C0.133422 0 -0.0667125 0.303614 0.0333546 0.573494L5.20349 13.7301C5.2702 13.8988 5.43698 14 5.60376 14H10.1068C10.3403 14 10.5404 14.2024 10.5404 14.4386V27.5952C10.5404 27.8313 10.7405 28.0337 10.974 28.0337H21.4144C21.6479 28.0337 21.848 27.8313 21.848 27.5952V0.438554C21.848 0.20241 21.6479 0 21.4144 0H10.8073Z"
      fill="url(#paint0_linear_4409_121438)"/>
    <path
      d="M0.433623 0C0.133422 0 -0.0667125 0.303614 0.0333546 0.573494L5.20349 13.7301C5.2702 13.8988 5.43698 14 5.60376 14H9.83994C10.0734 14 10.2068 14 10.3736 14.1687C10.5404 14.3373 10.5404 14.5735 10.5404 14.5735V14V13.1904V0H0.433623Z"
      fill="url(#paint1_linear_4409_121438)"/>
    <path
      d="M26.818 0H40.7274C41.0943 0 41.2611 0.404819 41.0609 0.674699L30.8874 13.7301C30.754 13.8988 30.754 14.1012 30.8874 14.2699L41.0609 27.3253C41.2944 27.5952 41.0943 28 40.7274 28H26.818C26.6846 28 26.5512 27.9325 26.4845 27.8313L16.0775 14.2699C15.9441 14.1012 15.9441 13.8988 16.0775 13.7639L26.4845 0.168675C26.5845 0.0674699 26.6846 0 26.818 0Z"
      fill="url(#paint2_linear_4409_121438)"/>
    <path
      d="M40.8607 27.0892L30.8874 14.2699C30.754 14.1012 30.754 13.8988 30.8874 13.7301L40.8607 0.910843C41.1609 0.539759 40.8941 0 40.4271 0H26.8847C26.7179 0 26.5511 0.0674699 26.4511 0.236145L23.2156 4.45301L40.8607 27.0892Z"
      fill="url(#paint3_linear_4409_121438)"/>
    <path
      d="M64.977 7.08414H59.1731V1.3492C59.1731 1.11305 58.973 0.910645 58.7395 0.910645H53.9029C53.6694 0.910645 53.4693 1.11305 53.4693 1.3492V7.08414H50.2671C50.0336 7.08414 49.8335 7.28655 49.8335 7.52269V11.8408C49.8335 12.0769 50.0336 12.2793 50.2671 12.2793H53.4693V19.9372C53.4693 21.4552 54.1364 22.9058 55.3372 23.9853L56.1377 24.6938C57.7388 26.1106 59.8402 26.8866 62.075 26.8866H65.0103C65.2438 26.8866 65.444 26.6841 65.444 26.448V22.1299C65.444 21.8938 65.2438 21.6914 65.0103 21.6914H61.3079C60.1738 21.6914 59.2065 20.8817 59.2065 19.8697V12.3131H65.0103C65.2438 12.3131 65.444 12.1106 65.444 11.8745V7.55643C65.4106 7.28655 65.2105 7.08414 64.977 7.08414Z"
      fill="black"/>
    <path
      d="M148.566 21.6576H144.864C143.696 21.6576 142.763 20.8479 142.763 19.8359V1.38289C142.763 1.14675 142.562 0.944336 142.329 0.944336H137.492C137.259 0.944336 137.059 1.14675 137.059 1.38289V19.9708C137.059 21.4889 137.726 22.9395 138.927 24.019L139.727 24.7275C141.328 26.1443 143.43 26.9202 145.664 26.9202H148.6C148.833 26.9202 149.033 26.7178 149.033 26.4817V22.1299C149 21.86 148.8 21.6576 148.566 21.6576Z"
      fill="black"/>
    <path
      d="M82.322 16.0239C86.4581 11.8745 89.2266 6.88168 90.3607 1.48409C90.3941 1.34916 90.3607 1.21422 90.2606 1.11301C90.1939 1.01181 90.0605 0.944336 89.9271 0.944336H84.9904C84.7903 0.944336 84.6235 1.07928 84.5568 1.28169C83.0558 7.45518 78.8196 13.0214 72.8823 16.6311V1.38289C72.8823 1.14675 72.6822 0.944336 72.4487 0.944336H67.6121C67.3786 0.944336 67.1785 1.14675 67.1785 1.38289V26.4479C67.1785 26.6841 67.3786 26.8865 67.6121 26.8865H72.4487C72.6822 26.8865 72.8823 26.6841 72.8823 26.4479V22.6359C74.6168 21.8263 76.2846 20.8142 77.9857 19.5998C81.2546 21.5226 83.9898 23.9178 86.0578 26.7178C86.1245 26.819 86.258 26.8865 86.4247 26.8865H92.0619C92.2286 26.8865 92.3621 26.7853 92.4621 26.6504C92.5288 26.5154 92.5288 26.3467 92.4621 26.2118C90.0605 22.2648 86.5582 18.7564 82.322 16.0239Z"
      fill="black"/>
    <path
      d="M101.034 5.90332C94.897 5.90332 89.8937 10.5925 89.8937 16.3949C89.8937 22.1973 94.897 26.8865 101.034 26.8865C104.97 26.8865 107.806 25.9756 109.674 24.0527C109.74 23.9515 109.807 23.8503 109.807 23.7154C109.807 23.5804 109.74 23.4792 109.674 23.4118L106.338 20.2744C106.238 20.1732 106.105 20.1395 106.004 20.1395C105.871 20.1395 105.771 20.2069 105.704 20.3081C105.004 21.2527 103.603 21.6575 101.101 21.6575C99.0665 21.6575 97.2319 20.5105 96.298 18.7563H111.675C111.908 18.7563 112.109 18.5877 112.109 18.3515C112.175 17.6768 112.209 17.0021 112.209 16.3612C112.142 10.5925 107.172 5.90332 101.034 5.90332ZM96.2313 13.9997C97.1319 12.2455 98.9998 11.0985 101.034 11.0985C103.069 11.0985 104.904 12.2455 105.838 13.9997H96.2313Z"
      fill="black"/>
    <path
      d="M124.317 5.90332C118.179 5.90332 113.176 10.5925 113.176 16.3949C113.176 22.1973 118.179 26.8865 124.317 26.8865C128.253 26.8865 131.088 25.9756 132.956 24.0527C133.023 23.9515 133.089 23.8503 133.089 23.7154C133.089 23.5804 133.023 23.4792 132.956 23.4118L129.62 20.2744C129.52 20.1732 129.387 20.1395 129.287 20.1395C129.153 20.1395 129.053 20.2069 128.987 20.3081C128.286 21.2527 126.885 21.6575 124.384 21.6575C122.349 21.6575 120.514 20.5105 119.58 18.7563H134.957C135.191 18.7563 135.391 18.5877 135.391 18.3515C135.458 17.6768 135.491 17.0021 135.491 16.3612C135.424 10.5925 130.454 5.90332 124.317 5.90332ZM119.514 13.9997C120.448 12.2455 122.282 11.0985 124.317 11.0985C126.352 11.0985 128.186 12.2455 129.12 13.9997H119.514Z"
      fill="black"/>
  </g>
  <defs>
    <linearGradient id="paint0_linear_4409_121438" x1="7.93099" y1="-1.38678"
                    x2="25.524" y2="30.7412" gradientUnits="userSpaceOnUse">
      <stop offset="0.1828" stop-color="#00FFFF"/>
      <stop offset="1" stop-color="#0073F2"/>
    </linearGradient>
    <linearGradient id="paint1_linear_4409_121438" x1="-1.94521" y1="6.95027"
                    x2="27.2081" y2="7.71692" gradientUnits="userSpaceOnUse">
      <stop offset="0.1786" stop-color="#00FFFF"/>
      <stop offset="1" stop-color="#0073F2"/>
    </linearGradient>
    <linearGradient id="paint2_linear_4409_121438" x1="20.2721" y1="16.1525"
                    x2="69.6104" y2="8.48208" gradientUnits="userSpaceOnUse">
      <stop offset="0.0837281" stop-color="#0069E8"/>
      <stop offset="0.4087" stop-color="#2A4CD4"/>
      <stop offset="1" stop-color="#1C55CD"/>
    </linearGradient>
    <linearGradient id="paint3_linear_4409_121438" x1="41.1535" y1="3.10803"
                    x2="24.2391" y2="26.0921" gradientUnits="userSpaceOnUse">
      <stop offset="0.0837281" stop-color="#0069E8"/>
      <stop offset="0.4087" stop-color="#2A4CD4"/>
      <stop offset="1" stop-color="#1C55CD"/>
    </linearGradient>
    <clipPath id="clip0_4409_121438">
      <rect width="149" height="28" fill="white"/>
    </clipPath>
  </defs>
</svg>
